name analog
datacolumns 19
datarows 51
range 0.0 0.025
endheader
time	ground_force_vx	ground_force_vy	ground_force_vz	ground_force_px	ground_force_py	ground_force_pz	l_ground_force_vx	l_ground_force_vy	l_ground_force_vz	l_ground_force_px	l_ground_force_py	l_ground_force_pz	ground_torque_x	ground_torque_y	ground_torque_z	l_ground_torque_x	l_ground_torque_y	l_ground_torque_z
0.0	-0.0	-0.0	-0.0	-2.927335262298584	43.04998779296875	-399.5122680664063	0.1925639063119888	-40.45133209228516	-396.287109375	-0.0	-0.0	-0.0	-0.0	-0.0	-0.0	83906.5078125	-35335.4375	1253.11572265625
0.0005	-0.0	-0.0	-0.0	-2.5703320503234863	43.63236999511719	-398.9605102539063	0.2447306811809539	-40.33861541748047	-395.8777160644531	-0.0	-0.0	-0.0	-0.0	-0.0	-0.0	83756.4453125	-35453.2109375	1206.1536865234375
0.001	-0.0	-0.0	-0.0	-2.7993242740631104	43.384910583496094	-398.6732482910156	0.0057848691940307	-40.14028549194336	-397.53948974609375	-0.0	-0.0	-0.0	-0.0	-0.0	-0.0	84033.5078125	-35630.36328125	1253.1097412109375
0.0015	-0.0	-0.0	-0.0	-2.64448356628418	43.29826736450195	-398.3785095214844	0.260563313961029	-40.363014221191406	-396.22601318359375	-0.0	-0.0	-0.0	-0.0	-0.0	-0.0	83835.296875	-35455.83203125	1282.912841796875
0.002	-0.0	-0.0	-0.0	-2.336620330810547	42.909461975097656	-397.2664184570313	0.0521927326917648	-40.55525970458984	-397.2728576660156	-0.0	-0.0	-0.0	-0.0	-0.0	-0.0	84056.265625	-35566.0625	1225.142822265625
0.0025	-0.0	-0.0	-0.0	-2.516589403152466	42.99679183959961	-397.11663818359375	0.2345314621925354	-40.51909255981445	-395.4453125	-0.0	-0.0	-0.0	-0.0	-0.0	-0.0	84196.7578125	-35556.52734375	1153.67919921875
0.003	-0.0	-0.0	-0.0	-2.2291693687438965	42.8173713684082	-398.3826599121094	0.3343833386898041	-40.18185806274414	-395.7947082519531	-0.0	-0.0	-0.0	-0.0	-0.0	-0.0	83851.734375	-35707.59375	1283.0809326171875
0.0035	-0.0	-0.0	-0.0	-2.19441819190979	42.92504119873047	-396.13232421875	0.6209754943847656	-40.29066848754883	-396.1607971191406	-0.0	-0.0	-0.0	-0.0	-0.0	-0.0	83959.7265625	-35804.94921875	1217.16552734375
0.004	-0.0	-0.0	-0.0	-1.926830053329468	42.6395149230957	-398.3172912597656	0.3588654398918152	-40.310821533203125	-396.0965881347656	-0.0	-0.0	-0.0	-0.0	-0.0	-0.0	84092.9296875	-36015.078125	1260.1751708984375
0.0045000000000000005	-0.0	-0.0	-0.0	-2.3550117015838623	42.515384674072266	-397.18603515625	0.624597430229187	-39.92140197753906	-395.4462890625	-0.0	-0.0	-0.0	-0.0	-0.0	-0.0	84205.84375	-35894.99609375	1271.3062744140625
0.005	-0.0	-0.0	-0.0	-1.677103877067566	42.69332885742188	-398.4578552246094	0.5519912242889404	-40.134033203125	-396.5069885253906	-0.0	-0.0	-0.0	-0.0	-0.0	-0.0	84245.15625	-35829.96875	1376.7061767578125
0.0055	-0.0	-0.0	-0.0	-1.6773688793182373	42.46235656738281	-396.4786987304688	0.4961622953414917	-40.183292388916016	-395.8608093261719	-0.0	-0.0	-0.0	-0.0	-0.0	-0.0	84088.421875	-36080.84375	1289.8446044921875
0.006	-0.0	-0.0	-0.0	-1.927098035812378	42.47895050048828	-397.47113037109375	0.3715092241764068	-40.09804534912109	-396.3421020507813	-0.0	-0.0	-0.0	-0.0	-0.0	-0.0	84069.5234375	-36096.4609375	1359.298583984375
0.006500000000000001	-0.0	-0.0	-0.0	-1.6949996948242188	42.44429016113281	-399.5186767578125	0.3380905389785766	-40.41551208496094	-396.2968444824219	-0.0	-0.0	-0.0	-0.0	-0.0	-0.0	84272.6640625	-36099.97265625	1360.1226806640625
0.007	-0.0	-0.0	-0.0	-1.91017746925354	42.74721145629883	-399.5139770507813	0.496358722448349	-40.22211837768555	-395.6552734375	-0.0	-0.0	-0.0	-0.0	-0.0	-0.0	84432.796875	-36030.25390625	1272.046142578125
0.0075	-0.0	-0.0	-0.0	-1.4997512102127075	42.56732940673828	-398.3136901855469	0.6380139589309692	-40.09980010986328	-396.4281311035156	-0.0	-0.0	-0.0	-0.0	-0.0	-0.0	84083.8203125	-36198.16796875	1301.7718505859375
0.008	-0.0	-0.0	-0.0	-1.890116810798645	42.69346618652344	-398.7326049804688	0.4435539245605469	-40.274688720703125	-396.3605651855469	-0.0	-0.0	-0.0	-0.0	-0.0	-0.0	84384.078125	-36361.02734375	1331.7252197265625
0.0085	-0.0	-0.0	-0.0	-1.3710668087005615	42.38856887817383	-398.3961181640625	0.6751151084899902	-40.363014221191406	-395.1671142578125	-0.0	-0.0	-0.0	-0.0	-0.0	-0.0	84189.0234375	-36324.94921875	1224.1756591796875
0.009000000000000001	-0.0	-0.0	-0.0	-1.6598412990570068	42.30181503295898	-397.8197937011719	0.3017820119857788	-40.38034439086914	-396.4273986816406	-0.0	-0.0	-0.0	-0.0	-0.0	-0.0	84191.59375	-36321.81640625	1431.5750732421875
0.0095	-0.0	-0.0	-0.0	-1.5516937971115112	42.42607116699219	-398.6650085449219	0.7277951240539551	-40.4152717590332	-395.4510803222656	-0.0	-0.0	-0.0	-0.0	-0.0	-0.0	84284.796875	-36403.34375	1301.5252685546875
0.01	-0.0	-0.0	-0.0	-1.3699438571929932	42.82084274291992	-399.0304260253906	0.4082382619380951	-40.203948974609375	-396.2862548828125	-0.0	-0.0	-0.0	-0.0	-0.0	-0.0	84326.484375	-36641.48046875	1425.8321533203125
0.0105	-0.0	-0.0	-0.0	-1.8156176805496216	42.39113235473633	-398.2344055175781	0.3726265430450439	-40.274688720703125	-395.93792724609375	-0.0	-0.0	-0.0	-0.0	-0.0	-0.0	84303.875	-36690.25390625	1413.9091796875
0.011	-0.0	-0.0	-0.0	-1.279958724975586	42.51131439208984	-399.0319519042969	0.4968663156032562	-40.20377731323242	-397.54437255859375	-0.0	-0.0	-0.0	-0.0	-0.0	-0.0	84314.09375	-36589.97265625	1360.677734375
0.0115	-0.0	-0.0	-0.0	-1.3033101558685305	42.42607116699219	-398.2490234375	0.602945864200592	-40.4161491394043	-396.0770263671875	-0.0	-0.0	-0.0	-0.0	-0.0	-0.0	84391.2265625	-36514.5625	1354.46875
0.012	-0.0	-0.0	-0.0	-1.303353190422058	42.29777526855469	-398.50732421875	0.1058934032917022	-40.41619110107422	-396.7075500488281	-0.0	-0.0	-0.0	-0.0	-0.0	-0.0	84404.5234375	-36832.13671875	1473.323486328125
0.0125	-0.0	-0.0	-0.0	-1.342958688735962	42.23766326904297	-397.4269104003906	0.2126393020153045	-40.396751403808594	-397.1292724609375	-0.0	-0.0	-0.0	-0.0	-0.0	-0.0	84693.9609375	-36838.72265625	1353.9906005859375
0.013000000000000001	-0.0	-0.0	-0.0	-1.219402551651001	42.27732849121094	-399.2507934570313	0.1606671661138534	-40.45133209228516	-395.93792724609375	-0.0	-0.0	-0.0	-0.0	-0.0	-0.0	84539.0703125	-36726.71484375	1348.7828369140625
0.0135	-0.0	-0.0	-0.0	-1.099809646606445	42.213226318359375	-398.4449462890625	0.4786657094955444	-40.41637420654297	-396.2797546386719	-0.0	-0.0	-0.0	-0.0	-0.0	-0.0	84404.09375	-36694.671875	1431.87158203125
0.014	-0.0	-0.0	-0.0	-1.1654731035232544	42.70785140991211	-400.6997985839844	0.2288376241922378	-40.3281364440918	-395.800048828125	-0.0	-0.0	-0.0	-0.0	-0.0	-0.0	84477.015625	-36605.71484375	1462.1639404296875
0.0145	-0.0	-0.0	-0.0	-1.036052107810974	42.41792297363281	-399.6069641113281	0.6047790050506592	-40.32819747924805	-395.5250549316406	-0.0	-0.0	-0.0	-0.0	-0.0	-0.0	84412.546875	-36828.38671875	1372.703369140625
0.015	-0.0	-0.0	-0.0	-1.022105693817139	42.33056640625	-399.1488037109375	0.2283250242471695	-39.993797302246094	-395.451416015625	-0.0	-0.0	-0.0	-0.0	-0.0	-0.0	84273.921875	-36662.26953125	1438.191650390625
0.0155	-0.0	-0.0	-0.0	-1.1874157190322876	41.918941497802734	-397.73541259765625	0.4435539245605469	-40.186370849609375	-394.678466796875	-0.0	-0.0	-0.0	-0.0	-0.0	-0.0	84288.6796875	-36908.0859375	1377.9581298828125
0.016	-0.0	-0.0	-0.0	-0.8509140014648438	41.90499114990234	-398.631591796875	0.4087503254413605	-40.278079986572266	-395.58880615234375	-0.0	-0.0	-0.0	-0.0	-0.0	-0.0	84263.6875	-36920.09765625	1502.9261474609375
0.0165	-0.0	-0.0	-0.0	-1.0974667072296145	41.92548751831055	-398.6046447753906	0.3393833339214325	-39.88683319091797	-395.0271606445313	-0.0	-0.0	-0.0	-0.0	-0.0	-0.0	84227.265625	-36681.1484375	1433.308837890625
0.017	-0.0	-0.0	-0.0	-0.6719180941581726	41.87042999267578	-397.54534912109375	0.2896396517753601	-39.65644073486328	-393.493896484375	-0.0	-0.0	-0.0	-0.0	-0.0	-0.0	84124.5390625	-36894.2890625	1461.7449951171875
0.0175	-0.0	-0.0	-0.0	-0.9052555561065674	41.78902053833008	-396.8701171875	0.2120390832424163	-39.89125061035156	-393.9026184082031	-0.0	-0.0	-0.0	-0.0	-0.0	-0.0	84120.203125	-36749.55859375	1520.9727783203125
0.018000000000000002	-0.0	-0.0	-0.0	-0.6033426523208618	41.76815032958984	-396.2678833007813	0.409016489982605	-39.76431274414063	-394.0562438964844	-0.0	-0.0	-0.0	-0.0	-0.0	-0.0	84072.734375	-36806.8828125	1433.762939453125
0.0185	-0.0	-0.0	-0.0	-0.5692592263221741	41.47960662841797	-397.4114379882813	0.2661323547363281	-39.79373550415039	-392.7177734375	-0.0	-0.0	-0.0	-0.0	-0.0	-0.0	83922.9921875	-36834.55078125	1430.403564453125
0.019	-0.0	-0.0	-0.0	-0.5227074027061462	41.37785720825195	-396.9742431640625	-0.0741955488920211	-39.87269592285156	-394.0567626953125	-0.0	-0.0	-0.0	-0.0	-0.0	-0.0	84016.234375	-36811.29296875	1420.345703125
0.0195	-0.0	-0.0	-0.0	-0.7905491590499878	41.50094604492188	-396.3167724609375	0.3004831075668335	-39.75040435791016	-393.493896484375	-0.0	-0.0	-0.0	-0.0	-0.0	-0.0	84211.3359375	-36965.38671875	1354.662841796875
0.02	-0.0	-0.0	-0.0	-0.335248589515686	41.43343353271485	-396.7549133300781	0.1289021670818328	-39.5539665222168	-393.493896484375	-0.0	-0.0	-0.0	-0.0	-0.0	-0.0	84206.8359375	-36939.31640625	1436.8631591796875
0.0205	-0.0	-0.0	-0.0	-0.5135085582733154	41.15651321411133	-397.36614990234375	0.3066440224647522	-39.602195739746094	-393.843017578125	-0.0	-0.0	-0.0	-0.0	-0.0	-0.0	84224.640625	-37144.8359375	1354.7049560546875
0.021	-0.0	-0.0	-0.0	-0.5116937160491943	41.21188354492188	-397.2008361816406	0.1774215698242187	-39.92140197753906	-393.493896484375	-0.0	-0.0	-0.0	-0.0	-0.0	-0.0	83967.671875	-36887.77734375	1336.2923583984375
0.021500000000000002	-0.0	-0.0	-0.0	-0.2120426744222641	41.04388046264648	-396.7950134277344	0.0204673334956169	-39.90781021118164	-394.5145263671875	-0.0	-0.0	-0.0	-0.0	-0.0	-0.0	84368.8828125	-37155.73046875	1413.7518310546875
0.022	-0.0	-0.0	-0.0	-0.4567679464817047	41.15544128417969	-396.7510986328125	0.1980490386486053	-39.84026336669922	-394.8092956542969	-0.0	-0.0	-0.0	-0.0	-0.0	-0.0	84451.7578125	-37060.81640625	1384.2313232421875
0.0225	-0.0	-0.0	-0.0	-0.1784210205078125	40.8886604309082	-396.79833984375	-0.122709147632122	-39.853702545166016	-395.3442077636719	-0.0	-0.0	-0.0	-0.0	-0.0	-0.0	84437.5	-37158.890625	1450.25439453125
0.023	-0.0	-0.0	-0.0	-0.2676315307617187	40.94425201416016	-396.22412109375	-0.1095717325806617	-39.73175430297852	-394.94189453125	-0.0	-0.0	-0.0	-0.0	-0.0	-0.0	84385.7265625	-37100.0390625	1418.9185791015625
0.0235	-0.0	-0.0	-0.0	-0.4910576939582824	40.9891471862793	-395.9576721191406	-0.0338555537164211	-39.8876953125	-393.493896484375	-0.0	-0.0	-0.0	-0.0	-0.0	-0.0	84412.765625	-37220.94921875	1399.6741943359375
0.024	-0.0	-0.0	-0.0	-0.0559000261127948	41.05583572387695	-394.7232971191406	-0.2872185707092285	-39.92140197753906	-394.7245178222656	-0.0	-0.0	-0.0	-0.0	-0.0	-0.0	84522.375	-37248.36328125	1272.2603759765625
0.0245	-0.0	-0.0	-0.0	0.0227506011724472	41.08911895751953	-395.2569580078125	-0.3335967659950256	-39.87909698486328	-394.324951171875	-0.0	-0.0	-0.0	-0.0	-0.0	-0.0	84651.84375	-37214.875	1246.802978515625
0.025	-0.0	-0.0	-0.0	0.1120879054069519	40.81144714355469	-392.9579772949219	-0.4312570989131927	-40.04324722290039	-395.2753601074219	-0.0	-0.0	-0.0	-0.0	-0.0	-0.0	84538.7578125	-37402.48828125	1313.1453857421875
